solid battery_lock
facet normal 0.0 0.0 -1.0
  outer loop
    vertex 6.000000000000001 34.0 0.0
    vertex 7.000000000000001 26.999999999999996 0.0
    vertex 6.0000000000000036 16.0 0.0
  endloop
endfacet
facet normal 0.0 0.0 -1.0
  outer loop
    vertex 7.000000000000001 26.999999999999996 0.0
    vertex 6.000000000000001 34.0 0.0
    vertex 8.0 31.999999999999996 0.0
  endloop
endfacet
facet normal 0.0 0.0 -1.0
  outer loop
    vertex 8.0 31.999999999999996 0.0
    vertex 6.000000000000001 34.0 0.0
    vertex 12.0 34.0 0.0
  endloop
endfacet
facet normal 0.0 0.0 -1.0
  outer loop
    vertex 8.0 31.999999999999996 0.0
    vertex 12.0 34.0 0.0
    vertex 12.0 31.999999999999996 0.0
  endloop
endfacet
facet normal 0.0 0.0 -1.0
  outer loop
    vertex 7.000000000000001 26.999999999999996 0.0
    vertex 8.0 28.999999999999996 0.0
    vertex 12.0 26.999999999999996 0.0
  endloop
endfacet
facet normal 0.0 0.0 -1.0
  outer loop
    vertex 8.0 28.999999999999996 0.0
    vertex 7.000000000000001 26.999999999999996 0.0
    vertex 8.0 31.999999999999996 0.0
  endloop
endfacet
facet normal 0.0 0.0 -1.0
  outer loop
    vertex 12.0 26.999999999999996 0.0
    vertex 8.0 28.999999999999996 0.0
    vertex 12.0 28.999999999999996 0.0
  endloop
endfacet
facet normal 0.0 0.0 -1.0
  outer loop
    vertex 0.8038475772933709 13.000000000000004 0.0
    vertex 1.1703708685546605 11.294095225512608 0.0
    vertex 1.0000000000000009 10.0 0.0
  endloop
endfacet
facet normal 0.0 0.0 -1.0
  outer loop
    vertex 1.1703708685546605 11.294095225512608 0.0
    vertex 0.8038475772933709 13.000000000000004 0.0
    vertex 1.7573593128807166 14.24264068711929 0.0
  endloop
endfacet
facet normal 0.0 0.0 -1.0
  outer loop
    vertex 1.1703708685546605 11.294095225512608 0.0
    vertex 1.7573593128807166 14.24264068711929 0.0
    vertex 1.6698729810778095 12.500000000000002 0.0
  endloop
endfacet
facet normal 0.0 0.0 -1.0
  outer loop
    vertex 1.6698729810778095 12.500000000000002 0.0
    vertex 1.7573593128807166 14.24264068711929 0.0
    vertex 2.4644660940672636 13.53553390593274 0.0
  endloop
endfacet
facet normal 0.0 0.0 -1.0
  outer loop
    vertex 2.4644660940672636 13.53553390593274 0.0
    vertex 1.7573593128807166 14.24264068711929 0.0
    vertex 3.0000000000000058 15.196152422706636 0.0
  endloop
endfacet
facet normal 0.0 0.0 -1.0
  outer loop
    vertex 2.4644660940672636 13.53553390593274 0.0
    vertex 3.0000000000000058 15.196152422706636 0.0
    vertex 3.500000000000005 14.330127018922195 0.0
  endloop
endfacet
facet normal 0.0 0.0 -1.0
  outer loop
    vertex 3.500000000000005 14.330127018922195 0.0
    vertex 3.0000000000000058 15.196152422706636 0.0
    vertex 4.447085729384881 15.795554957734412 0.0
  endloop
endfacet
facet normal 0.0 0.0 -1.0
  outer loop
    vertex 3.500000000000005 14.330127018922195 0.0
    vertex 4.447085729384881 15.795554957734412 0.0
    vertex 4.705904774487399 14.829629131445342 0.0
  endloop
endfacet
facet normal 0.0 0.0 -1.0
  outer loop
    vertex 4.705904774487399 14.829629131445342 0.0
    vertex 4.447085729384881 15.795554957734412 0.0
    vertex 6.0000000000000036 16.0 0.0
  endloop
endfacet
facet normal 0.0 0.0 -1.0
  outer loop
    vertex 4.705904774487399 14.829629131445342 0.0
    vertex 6.0000000000000036 16.0 0.0
    vertex 6.000000000000002 15.0 0.0
  endloop
endfacet
facet normal 0.0 0.0 -1.0
  outer loop
    vertex 6.000000000000002 15.0 0.0
    vertex 6.0000000000000036 16.0 0.0
    vertex 7.000000000000001 15.0 0.0
  endloop
endfacet
facet normal 0.0 0.0 -1.0
  outer loop
    vertex 7.000000000000001 15.0 0.0
    vertex 6.0000000000000036 16.0 0.0
    vertex 7.000000000000001 26.999999999999996 0.0
  endloop
endfacet
facet normal 0.0 0.0 -1.0
  outer loop
    vertex 12.0 1.9999999999999998 0.0
    vertex 8.0 0.0 0.0
    vertex 7.000000000000001 1.9999999999999998 0.0
  endloop
endfacet
facet normal 0.0 0.0 -1.0
  outer loop
    vertex 8.0 0.0 0.0
    vertex 12.0 1.9999999999999998 0.0
    vertex 12.0 0.0 0.0
  endloop
endfacet
facet normal 0.0 0.0 -1.0
  outer loop
    vertex 0.20444504226559193 11.552914270615132 0.0
    vertex 0.2044450422655891 8.447085729384876 0.0
    vertex 0.0 10.000000000000002 0.0
  endloop
endfacet
facet normal 0.0 0.0 -1.0
  outer loop
    vertex 0.2044450422655891 8.447085729384876 0.0
    vertex 0.20444504226559193 11.552914270615132 0.0
    vertex 0.8038475772933674 7.000000000000001 0.0
  endloop
endfacet
facet normal 0.0 0.0 -1.0
  outer loop
    vertex 0.8038475772933674 7.000000000000001 0.0
    vertex 0.20444504226559193 11.552914270615132 0.0
    vertex 0.8038475772933709 13.000000000000004 0.0
  endloop
endfacet
facet normal 0.0 0.0 -1.0
  outer loop
    vertex 0.8038475772933674 7.000000000000001 0.0
    vertex 0.8038475772933709 13.000000000000004 0.0
    vertex 1.0000000000000009 10.0 0.0
  endloop
endfacet
facet normal 0.0 0.0 -1.0
  outer loop
    vertex 0.8038475772933674 7.000000000000001 0.0
    vertex 1.0000000000000009 10.0 0.0
    vertex 1.1703708685546597 8.705904774487395 0.0
  endloop
endfacet
facet normal 0.0 0.0 -1.0
  outer loop
    vertex 0.8038475772933674 7.000000000000001 0.0
    vertex 1.1703708685546597 8.705904774487395 0.0
    vertex 1.7573593128807143 5.757359312880715 0.0
  endloop
endfacet
facet normal 0.0 0.0 -1.0
  outer loop
    vertex 1.7573593128807143 5.757359312880715 0.0
    vertex 1.1703708685546597 8.705904774487395 0.0
    vertex 1.6698729810778072 7.5 0.0
  endloop
endfacet
facet normal 0.0 0.0 -1.0
  outer loop
    vertex 1.7573593128807143 5.757359312880715 0.0
    vertex 1.6698729810778072 7.5 0.0
    vertex 2.464466094067263 6.464466094067263 0.0
  endloop
endfacet
facet normal 0.0 0.0 -1.0
  outer loop
    vertex 1.7573593128807143 5.757359312880715 0.0
    vertex 2.464466094067263 6.464466094067263 0.0
    vertex 2.9999999999999987 4.803847577293369 0.0
  endloop
endfacet
facet normal 0.0 0.0 -1.0
  outer loop
    vertex 2.9999999999999987 4.803847577293369 0.0
    vertex 2.464466094067263 6.464466094067263 0.0
    vertex 3.5000000000000004 5.669872981077807 0.0
  endloop
endfacet
facet normal 0.0 0.0 -1.0
  outer loop
    vertex 2.9999999999999987 4.803847577293369 0.0
    vertex 3.5000000000000004 5.669872981077807 0.0
    vertex 4.447085729384874 4.20444504226559 0.0
  endloop
endfacet
facet normal 0.0 0.0 -1.0
  outer loop
    vertex 4.447085729384874 4.20444504226559 0.0
    vertex 3.5000000000000004 5.669872981077807 0.0
    vertex 4.705904774487396 5.1703708685546585 0.0
  endloop
endfacet
facet normal 0.0 0.0 -1.0
  outer loop
    vertex 4.447085729384874 4.20444504226559 0.0
    vertex 4.705904774487396 5.1703708685546585 0.0
    vertex 5.999999999999999 3.999999999999999 0.0
  endloop
endfacet
facet normal 0.0 0.0 -1.0
  outer loop
    vertex 5.999999999999999 3.999999999999999 0.0
    vertex 4.705904774487396 5.1703708685546585 0.0
    vertex 6.000000000000001 5.0 0.0
  endloop
endfacet
facet normal 0.0 0.0 -1.0
  outer loop
    vertex 5.999999999999999 3.999999999999999 0.0
    vertex 6.000000000000001 5.0 0.0
    vertex 6.000000000000001 -3.0 0.0
  endloop
endfacet
facet normal 0.0 0.0 -1.0
  outer loop
    vertex 6.000000000000001 -3.0 0.0
    vertex 6.000000000000001 5.0 0.0
    vertex 7.000000000000001 5.0 0.0
  endloop
endfacet
facet normal 0.0 0.0 -1.0
  outer loop
    vertex 6.000000000000001 -3.0 0.0
    vertex 7.000000000000001 5.0 0.0
    vertex 7.000000000000001 1.9999999999999998 0.0
  endloop
endfacet
facet normal 0.0 0.0 -1.0
  outer loop
    vertex 6.000000000000001 -3.0 0.0
    vertex 7.000000000000001 1.9999999999999998 0.0
    vertex 8.0 -3.0 0.0
  endloop
endfacet
facet normal 0.0 0.0 -1.0
  outer loop
    vertex 8.0 -3.0 0.0
    vertex 7.000000000000001 1.9999999999999998 0.0
    vertex 8.0 0.0 0.0
  endloop
endfacet
facet normal -0.0 -0.0 1.0
  outer loop
    vertex 0.2044450422655891 8.447085729384876 5.0
    vertex 0.20444504226559193 11.552914270615132 5.0
    vertex 0.0 10.000000000000002 5.0
  endloop
endfacet
facet normal -0.0 -0.0 1.0
  outer loop
    vertex 0.20444504226559193 11.552914270615132 5.0
    vertex 0.2044450422655891 8.447085729384876 5.0
    vertex 0.8038475772933674 7.000000000000001 5.0
  endloop
endfacet
facet normal -0.0 -0.0 1.0
  outer loop
    vertex 0.20444504226559193 11.552914270615132 5.0
    vertex 0.8038475772933674 7.000000000000001 5.0
    vertex 0.8038475772933709 13.000000000000004 5.0
  endloop
endfacet
facet normal -0.0 -0.0 1.0
  outer loop
    vertex 0.8038475772933709 13.000000000000004 5.0
    vertex 0.8038475772933674 7.000000000000001 5.0
    vertex 1.0000000000000009 10.0 5.0
  endloop
endfacet
facet normal -0.0 -0.0 1.0
  outer loop
    vertex 1.0000000000000009 10.0 5.0
    vertex 0.8038475772933674 7.000000000000001 5.0
    vertex 1.1703708685546597 8.705904774487395 5.0
  endloop
endfacet
facet normal -0.0 -0.0 1.0
  outer loop
    vertex 1.1703708685546597 8.705904774487395 5.0
    vertex 0.8038475772933674 7.000000000000001 5.0
    vertex 1.7573593128807143 5.757359312880715 5.0
  endloop
endfacet
facet normal -0.0 -0.0 1.0
  outer loop
    vertex 1.1703708685546597 8.705904774487395 5.0
    vertex 1.7573593128807143 5.757359312880715 5.0
    vertex 1.6698729810778072 7.5 5.0
  endloop
endfacet
facet normal -0.0 -0.0 1.0
  outer loop
    vertex 1.6698729810778072 7.5 5.0
    vertex 1.7573593128807143 5.757359312880715 5.0
    vertex 2.464466094067263 6.464466094067263 5.0
  endloop
endfacet
facet normal -0.0 -0.0 1.0
  outer loop
    vertex 2.464466094067263 6.464466094067263 5.0
    vertex 1.7573593128807143 5.757359312880715 5.0
    vertex 2.9999999999999987 4.803847577293369 5.0
  endloop
endfacet
facet normal -0.0 -0.0 1.0
  outer loop
    vertex 2.464466094067263 6.464466094067263 5.0
    vertex 2.9999999999999987 4.803847577293369 5.0
    vertex 3.5000000000000004 5.669872981077807 5.0
  endloop
endfacet
facet normal -0.0 -0.0 1.0
  outer loop
    vertex 3.5000000000000004 5.669872981077807 5.0
    vertex 2.9999999999999987 4.803847577293369 5.0
    vertex 4.447085729384874 4.20444504226559 5.0
  endloop
endfacet
facet normal -0.0 -0.0 1.0
  outer loop
    vertex 3.5000000000000004 5.669872981077807 5.0
    vertex 4.447085729384874 4.20444504226559 5.0
    vertex 4.705904774487396 5.1703708685546585 5.0
  endloop
endfacet
facet normal -0.0 -0.0 1.0
  outer loop
    vertex 4.705904774487396 5.1703708685546585 5.0
    vertex 4.447085729384874 4.20444504226559 5.0
    vertex 5.999999999999999 3.999999999999999 5.0
  endloop
endfacet
facet normal -0.0 -0.0 1.0
  outer loop
    vertex 4.705904774487396 5.1703708685546585 5.0
    vertex 5.999999999999999 3.999999999999999 5.0
    vertex 6.000000000000001 5.0 5.0
  endloop
endfacet
facet normal -0.0 -0.0 1.0
  outer loop
    vertex 6.000000000000001 5.0 5.0
    vertex 5.999999999999999 3.999999999999999 5.0
    vertex 6.000000000000001 -3.0 5.0
  endloop
endfacet
facet normal -0.0 -0.0 1.0
  outer loop
    vertex 6.000000000000001 5.0 5.0
    vertex 6.000000000000001 -3.0 5.0
    vertex 8.0 -3.0 5.0
  endloop
endfacet
facet normal -0.0 -0.0 1.0
  outer loop
    vertex 6.000000000000001 5.0 5.0
    vertex 8.0 -3.0 5.0
    vertex 7.000000000000001 1.9999999999999998 5.0
  endloop
endfacet
facet normal -0.0 -0.0 1.0
  outer loop
    vertex 7.000000000000001 1.9999999999999998 5.0
    vertex 8.0 -3.0 5.0
    vertex 8.0 0.0 5.0
  endloop
endfacet
facet normal -0.0 -0.0 1.0
  outer loop
    vertex 7.000000000000001 1.9999999999999998 5.0
    vertex 8.0 0.0 5.0
    vertex 12.0 1.9999999999999998 5.0
  endloop
endfacet
facet normal -0.0 -0.0 1.0
  outer loop
    vertex 12.0 1.9999999999999998 5.0
    vertex 8.0 0.0 5.0
    vertex 12.0 0.0 5.0
  endloop
endfacet
facet normal -0.0 -0.0 1.0
  outer loop
    vertex 7.000000000000001 5.0 5.0
    vertex 6.000000000000001 5.0 5.0
    vertex 7.000000000000001 1.9999999999999998 5.0
  endloop
endfacet
facet normal -0.0 -0.0 1.0
  outer loop
    vertex 0.8038475772933709 13.000000000000004 5.0
    vertex 1.1703708685546605 11.294095225512608 5.0
    vertex 1.7573593128807166 14.24264068711929 5.0
  endloop
endfacet
facet normal -0.0 -0.0 1.0
  outer loop
    vertex 1.1703708685546605 11.294095225512608 5.0
    vertex 0.8038475772933709 13.000000000000004 5.0
    vertex 1.0000000000000009 10.0 5.0
  endloop
endfacet
facet normal -0.0 -0.0 1.0
  outer loop
    vertex 1.7573593128807166 14.24264068711929 5.0
    vertex 1.1703708685546605 11.294095225512608 5.0
    vertex 1.6698729810778095 12.500000000000002 5.0
  endloop
endfacet
facet normal -0.0 -0.0 1.0
  outer loop
    vertex 1.7573593128807166 14.24264068711929 5.0
    vertex 1.6698729810778095 12.500000000000002 5.0
    vertex 2.4644660940672636 13.53553390593274 5.0
  endloop
endfacet
facet normal -0.0 -0.0 1.0
  outer loop
    vertex 1.7573593128807166 14.24264068711929 5.0
    vertex 2.4644660940672636 13.53553390593274 5.0
    vertex 3.0000000000000058 15.196152422706636 5.0
  endloop
endfacet
facet normal -0.0 -0.0 1.0
  outer loop
    vertex 3.0000000000000058 15.196152422706636 5.0
    vertex 2.4644660940672636 13.53553390593274 5.0
    vertex 3.500000000000005 14.330127018922195 5.0
  endloop
endfacet
facet normal -0.0 -0.0 1.0
  outer loop
    vertex 3.0000000000000058 15.196152422706636 5.0
    vertex 3.500000000000005 14.330127018922195 5.0
    vertex 4.447085729384881 15.795554957734412 5.0
  endloop
endfacet
facet normal -0.0 -0.0 1.0
  outer loop
    vertex 4.447085729384881 15.795554957734412 5.0
    vertex 3.500000000000005 14.330127018922195 5.0
    vertex 4.705904774487399 14.829629131445342 5.0
  endloop
endfacet
facet normal -0.0 -0.0 1.0
  outer loop
    vertex 4.447085729384881 15.795554957734412 5.0
    vertex 4.705904774487399 14.829629131445342 5.0
    vertex 6.0000000000000036 16.0 5.0
  endloop
endfacet
facet normal -0.0 -0.0 1.0
  outer loop
    vertex 6.0000000000000036 16.0 5.0
    vertex 4.705904774487399 14.829629131445342 5.0
    vertex 6.000000000000002 15.0 5.0
  endloop
endfacet
facet normal -0.0 -0.0 1.0
  outer loop
    vertex 6.0000000000000036 16.0 5.0
    vertex 6.000000000000002 15.0 5.0
    vertex 7.000000000000001 15.0 5.0
  endloop
endfacet
facet normal -0.0 -0.0 1.0
  outer loop
    vertex 12.0 26.999999999999996 5.0
    vertex 8.0 28.999999999999996 5.0
    vertex 7.000000000000001 26.999999999999996 5.0
  endloop
endfacet
facet normal -0.0 -0.0 1.0
  outer loop
    vertex 8.0 28.999999999999996 5.0
    vertex 12.0 26.999999999999996 5.0
    vertex 12.0 28.999999999999996 5.0
  endloop
endfacet
facet normal -0.0 -0.0 1.0
  outer loop
    vertex 6.000000000000001 34.0 5.0
    vertex 8.0 31.999999999999996 5.0
    vertex 12.0 34.0 5.0
  endloop
endfacet
facet normal -0.0 -0.0 1.0
  outer loop
    vertex 8.0 31.999999999999996 5.0
    vertex 6.000000000000001 34.0 5.0
    vertex 7.000000000000001 26.999999999999996 5.0
  endloop
endfacet
facet normal -0.0 -0.0 1.0
  outer loop
    vertex 7.000000000000001 26.999999999999996 5.0
    vertex 6.000000000000001 34.0 5.0
    vertex 6.0000000000000036 16.0 5.0
  endloop
endfacet
facet normal -0.0 -0.0 1.0
  outer loop
    vertex 7.000000000000001 26.999999999999996 5.0
    vertex 6.0000000000000036 16.0 5.0
    vertex 7.000000000000001 15.0 5.0
  endloop
endfacet
facet normal -0.0 -0.0 1.0
  outer loop
    vertex 8.0 31.999999999999996 5.0
    vertex 7.000000000000001 26.999999999999996 5.0
    vertex 8.0 28.999999999999996 5.0
  endloop
endfacet
facet normal -0.0 -0.0 1.0
  outer loop
    vertex 12.0 34.0 5.0
    vertex 8.0 31.999999999999996 5.0
    vertex 12.0 31.999999999999996 5.0
  endloop
endfacet
facet normal -1.0 -1.5666480458599432e-16 -0.0
  outer loop
    vertex 6.000000000000001 34.0 5.0
    vertex 6.0000000000000036 16.0 0.0
    vertex 6.0000000000000036 16.0 5.0
  endloop
endfacet
facet normal -1.0 -1.5666480458599432e-16 -0.0
  outer loop
    vertex 6.0000000000000036 16.0 0.0
    vertex 6.000000000000001 34.0 5.0
    vertex 6.000000000000001 34.0 0.0
  endloop
endfacet
facet normal -0.0 1.0 0.0
  outer loop
    vertex 6.000000000000001 34.0 5.0
    vertex 12.0 34.0 0.0
    vertex 6.000000000000001 34.0 0.0
  endloop
endfacet
facet normal -0.0 1.0 0.0
  outer loop
    vertex 12.0 34.0 0.0
    vertex 6.000000000000001 34.0 5.0
    vertex 12.0 34.0 5.0
  endloop
endfacet
facet normal 1.0 0.0 0.0
  outer loop
    vertex 12.0 34.0 0.0
    vertex 12.0 31.999999999999996 5.0
    vertex 12.0 31.999999999999996 0.0
  endloop
endfacet
facet normal 1.0 0.0 0.0
  outer loop
    vertex 12.0 31.999999999999996 5.0
    vertex 12.0 34.0 0.0
    vertex 12.0 34.0 5.0
  endloop
endfacet
facet normal -0.0 -1.0 -0.0
  outer loop
    vertex 12.0 31.999999999999996 5.0
    vertex 8.0 31.999999999999996 0.0
    vertex 12.0 31.999999999999996 0.0
  endloop
endfacet
facet normal -0.0 -1.0 -0.0
  outer loop
    vertex 8.0 31.999999999999996 0.0
    vertex 12.0 31.999999999999996 5.0
    vertex 8.0 31.999999999999996 5.0
  endloop
endfacet
facet normal 1.0 0.0 0.0
  outer loop
    vertex 8.0 31.999999999999996 0.0
    vertex 8.0 28.999999999999996 5.0
    vertex 8.0 28.999999999999996 0.0
  endloop
endfacet
facet normal 1.0 0.0 0.0
  outer loop
    vertex 8.0 28.999999999999996 5.0
    vertex 8.0 31.999999999999996 0.0
    vertex 8.0 31.999999999999996 5.0
  endloop
endfacet
facet normal -0.0 1.0 0.0
  outer loop
    vertex 8.0 28.999999999999996 5.0
    vertex 12.0 28.999999999999996 0.0
    vertex 8.0 28.999999999999996 0.0
  endloop
endfacet
facet normal -0.0 1.0 0.0
  outer loop
    vertex 12.0 28.999999999999996 0.0
    vertex 8.0 28.999999999999996 5.0
    vertex 12.0 28.999999999999996 5.0
  endloop
endfacet
facet normal 1.0 0.0 0.0
  outer loop
    vertex 12.0 28.999999999999996 0.0
    vertex 12.0 26.999999999999996 5.0
    vertex 12.0 26.999999999999996 0.0
  endloop
endfacet
facet normal 1.0 0.0 0.0
  outer loop
    vertex 12.0 26.999999999999996 5.0
    vertex 12.0 28.999999999999996 0.0
    vertex 12.0 28.999999999999996 5.0
  endloop
endfacet
facet normal -0.0 -1.0 -0.0
  outer loop
    vertex 12.0 26.999999999999996 5.0
    vertex 7.000000000000001 26.999999999999996 0.0
    vertex 12.0 26.999999999999996 0.0
  endloop
endfacet
facet normal -0.0 -1.0 -0.0
  outer loop
    vertex 7.000000000000001 26.999999999999996 0.0
    vertex 12.0 26.999999999999996 5.0
    vertex 7.000000000000001 26.999999999999996 5.0
  endloop
endfacet
facet normal 1.0 0.0 0.0
  outer loop
    vertex 7.000000000000001 26.999999999999996 0.0
    vertex 7.000000000000001 15.0 5.0
    vertex 7.000000000000001 15.0 0.0
  endloop
endfacet
facet normal 1.0 0.0 0.0
  outer loop
    vertex 7.000000000000001 15.0 5.0
    vertex 7.000000000000001 26.999999999999996 0.0
    vertex 7.000000000000001 26.999999999999996 5.0
  endloop
endfacet
facet normal -0.0 -1.0 -0.0
  outer loop
    vertex 7.000000000000001 15.0 5.0
    vertex 6.000000000000002 15.0 0.0
    vertex 7.000000000000001 15.0 0.0
  endloop
endfacet
facet normal -0.0 -1.0 -0.0
  outer loop
    vertex 6.000000000000002 15.0 0.0
    vertex 7.000000000000001 15.0 5.0
    vertex 6.000000000000002 15.0 5.0
  endloop
endfacet
facet normal 0.13052619222005188 -0.9914448613738104 0.0
  outer loop
    vertex 6.000000000000002 15.0 5.0
    vertex 4.705904774487399 14.829629131445342 0.0
    vertex 6.000000000000002 15.0 0.0
  endloop
endfacet
facet normal 0.13052619222005188 -0.9914448613738104 0.0
  outer loop
    vertex 4.705904774487399 14.829629131445342 0.0
    vertex 6.000000000000002 15.0 5.0
    vertex 4.705904774487399 14.829629131445342 5.0
  endloop
endfacet
facet normal 0.38268343236508984 -0.9238795325112867 0.0
  outer loop
    vertex 4.705904774487399 14.829629131445342 5.0
    vertex 3.500000000000005 14.330127018922195 0.0
    vertex 4.705904774487399 14.829629131445342 0.0
  endloop
endfacet
facet normal 0.38268343236508984 -0.9238795325112867 0.0
  outer loop
    vertex 3.500000000000005 14.330127018922195 0.0
    vertex 4.705904774487399 14.829629131445342 5.0
    vertex 3.500000000000005 14.330127018922195 5.0
  endloop
endfacet
facet normal 0.608761429008719 -0.7933533402912364 0.0
  outer loop
    vertex 3.500000000000005 14.330127018922195 5.0
    vertex 2.4644660940672636 13.53553390593274 0.0
    vertex 3.500000000000005 14.330127018922195 0.0
  endloop
endfacet
facet normal 0.608761429008719 -0.7933533402912364 0.0
  outer loop
    vertex 2.4644660940672636 13.53553390593274 0.0
    vertex 3.500000000000005 14.330127018922195 5.0
    vertex 2.4644660940672636 13.53553390593274 5.0
  endloop
endfacet
facet normal 0.7933533402912354 -0.6087614290087203 0.0
  outer loop
    vertex 2.4644660940672636 13.53553390593274 0.0
    vertex 1.6698729810778095 12.500000000000002 5.0
    vertex 1.6698729810778095 12.500000000000002 0.0
  endloop
endfacet
facet normal 0.7933533402912354 -0.6087614290087203 0.0
  outer loop
    vertex 1.6698729810778095 12.500000000000002 5.0
    vertex 2.4644660940672636 13.53553390593274 0.0
    vertex 2.4644660940672636 13.53553390593274 5.0
  endloop
endfacet
facet normal 0.9238795325112864 -0.3826834323650908 0.0
  outer loop
    vertex 1.6698729810778095 12.500000000000002 0.0
    vertex 1.1703708685546605 11.294095225512608 5.0
    vertex 1.1703708685546605 11.294095225512608 0.0
  endloop
endfacet
facet normal 0.9238795325112864 -0.3826834323650908 0.0
  outer loop
    vertex 1.1703708685546605 11.294095225512608 5.0
    vertex 1.6698729810778095 12.500000000000002 0.0
    vertex 1.6698729810778095 12.500000000000002 5.0
  endloop
endfacet
facet normal 0.9914448613738104 -0.13052619222005185 0.0
  outer loop
    vertex 1.1703708685546605 11.294095225512608 0.0
    vertex 1.0000000000000009 10.0 5.0
    vertex 1.0000000000000009 10.0 0.0
  endloop
endfacet
facet normal 0.9914448613738104 -0.13052619222005185 0.0
  outer loop
    vertex 1.0000000000000009 10.0 5.0
    vertex 1.1703708685546605 11.294095225512608 0.0
    vertex 1.1703708685546605 11.294095225512608 5.0
  endloop
endfacet
facet normal 0.9914448613738104 0.13052619222005174 0.0
  outer loop
    vertex 1.0000000000000009 10.0 0.0
    vertex 1.1703708685546597 8.705904774487395 5.0
    vertex 1.1703708685546597 8.705904774487395 0.0
  endloop
endfacet
facet normal 0.9914448613738104 0.13052619222005174 0.0
  outer loop
    vertex 1.1703708685546597 8.705904774487395 5.0
    vertex 1.0000000000000009 10.0 0.0
    vertex 1.0000000000000009 10.0 5.0
  endloop
endfacet
facet normal 0.923879532511287 0.3826834323650895 0.0
  outer loop
    vertex 1.1703708685546597 8.705904774487395 0.0
    vertex 1.6698729810778072 7.5 5.0
    vertex 1.6698729810778072 7.5 0.0
  endloop
endfacet
facet normal 0.923879532511287 0.3826834323650895 0.0
  outer loop
    vertex 1.6698729810778072 7.5 5.0
    vertex 1.1703708685546597 8.705904774487395 0.0
    vertex 1.1703708685546597 8.705904774487395 5.0
  endloop
endfacet
facet normal 0.7933533402912349 0.608761429008721 0.0
  outer loop
    vertex 1.6698729810778072 7.5 0.0
    vertex 2.464466094067263 6.464466094067263 5.0
    vertex 2.464466094067263 6.464466094067263 0.0
  endloop
endfacet
facet normal 0.7933533402912349 0.608761429008721 0.0
  outer loop
    vertex 2.464466094067263 6.464466094067263 5.0
    vertex 1.6698729810778072 7.5 0.0
    vertex 1.6698729810778072 7.5 5.0
  endloop
endfacet
facet normal 0.608761429008721 0.7933533402912348 0.0
  outer loop
    vertex 2.464466094067263 6.464466094067263 5.0
    vertex 3.5000000000000004 5.669872981077807 0.0
    vertex 2.464466094067263 6.464466094067263 0.0
  endloop
endfacet
facet normal 0.608761429008721 0.7933533402912348 0.0
  outer loop
    vertex 3.5000000000000004 5.669872981077807 0.0
    vertex 2.464466094067263 6.464466094067263 5.0
    vertex 3.5000000000000004 5.669872981077807 5.0
  endloop
endfacet
facet normal 0.38268343236508995 0.9238795325112867 0.0
  outer loop
    vertex 3.5000000000000004 5.669872981077807 5.0
    vertex 4.705904774487396 5.1703708685546585 0.0
    vertex 3.5000000000000004 5.669872981077807 0.0
  endloop
endfacet
facet normal 0.38268343236508995 0.9238795325112867 0.0
  outer loop
    vertex 4.705904774487396 5.1703708685546585 0.0
    vertex 3.5000000000000004 5.669872981077807 5.0
    vertex 4.705904774487396 5.1703708685546585 5.0
  endloop
endfacet
facet normal 0.13052619222005166 0.9914448613738104 0.0
  outer loop
    vertex 4.705904774487396 5.1703708685546585 5.0
    vertex 6.000000000000001 5.0 0.0
    vertex 4.705904774487396 5.1703708685546585 0.0
  endloop
endfacet
facet normal 0.13052619222005166 0.9914448613738104 0.0
  outer loop
    vertex 6.000000000000001 5.0 0.0
    vertex 4.705904774487396 5.1703708685546585 5.0
    vertex 6.000000000000001 5.0 5.0
  endloop
endfacet
facet normal -0.0 1.0 0.0
  outer loop
    vertex 6.000000000000001 5.0 5.0
    vertex 7.000000000000001 5.0 0.0
    vertex 6.000000000000001 5.0 0.0
  endloop
endfacet
facet normal -0.0 1.0 0.0
  outer loop
    vertex 7.000000000000001 5.0 0.0
    vertex 6.000000000000001 5.0 5.0
    vertex 7.000000000000001 5.0 5.0
  endloop
endfacet
facet normal 1.0 0.0 0.0
  outer loop
    vertex 7.000000000000001 5.0 0.0
    vertex 7.000000000000001 1.9999999999999998 5.0
    vertex 7.000000000000001 1.9999999999999998 0.0
  endloop
endfacet
facet normal 1.0 0.0 0.0
  outer loop
    vertex 7.000000000000001 1.9999999999999998 5.0
    vertex 7.000000000000001 5.0 0.0
    vertex 7.000000000000001 5.0 5.0
  endloop
endfacet
facet normal -0.0 1.0 0.0
  outer loop
    vertex 7.000000000000001 1.9999999999999998 5.0
    vertex 12.0 1.9999999999999998 0.0
    vertex 7.000000000000001 1.9999999999999998 0.0
  endloop
endfacet
facet normal -0.0 1.0 0.0
  outer loop
    vertex 12.0 1.9999999999999998 0.0
    vertex 7.000000000000001 1.9999999999999998 5.0
    vertex 12.0 1.9999999999999998 5.0
  endloop
endfacet
facet normal 1.0 0.0 0.0
  outer loop
    vertex 12.0 1.9999999999999998 0.0
    vertex 12.0 0.0 5.0
    vertex 12.0 0.0 0.0
  endloop
endfacet
facet normal 1.0 0.0 0.0
  outer loop
    vertex 12.0 0.0 5.0
    vertex 12.0 1.9999999999999998 0.0
    vertex 12.0 1.9999999999999998 5.0
  endloop
endfacet
facet normal -0.0 -1.0 -0.0
  outer loop
    vertex 12.0 0.0 5.0
    vertex 8.0 0.0 0.0
    vertex 12.0 0.0 0.0
  endloop
endfacet
facet normal -0.0 -1.0 -0.0
  outer loop
    vertex 8.0 0.0 0.0
    vertex 12.0 0.0 5.0
    vertex 8.0 0.0 5.0
  endloop
endfacet
facet normal 1.0 0.0 0.0
  outer loop
    vertex 8.0 0.0 0.0
    vertex 8.0 -3.0 5.0
    vertex 8.0 -3.0 0.0
  endloop
endfacet
facet normal 1.0 0.0 0.0
  outer loop
    vertex 8.0 -3.0 5.0
    vertex 8.0 0.0 0.0
    vertex 8.0 0.0 5.0
  endloop
endfacet
facet normal -0.0 -1.0 -0.0
  outer loop
    vertex 8.0 -3.0 5.0
    vertex 6.000000000000001 -3.0 0.0
    vertex 8.0 -3.0 0.0
  endloop
endfacet
facet normal -0.0 -1.0 -0.0
  outer loop
    vertex 6.000000000000001 -3.0 0.0
    vertex 8.0 -3.0 5.0
    vertex 6.000000000000001 -3.0 5.0
  endloop
endfacet
facet normal -1.0 -3.0213926598727476e-16 -0.0
  outer loop
    vertex 5.999999999999999 3.999999999999999 5.0
    vertex 6.000000000000001 -3.0 0.0
    vertex 6.000000000000001 -3.0 5.0
  endloop
endfacet
facet normal -1.0 -3.0213926598727476e-16 -0.0
  outer loop
    vertex 6.000000000000001 -3.0 0.0
    vertex 5.999999999999999 3.999999999999999 5.0
    vertex 5.999999999999999 3.999999999999999 0.0
  endloop
endfacet
facet normal -0.13052619222005213 -0.9914448613738105 -0.0
  outer loop
    vertex 5.999999999999999 3.999999999999999 5.0
    vertex 4.447085729384874 4.20444504226559 0.0
    vertex 5.999999999999999 3.999999999999999 0.0
  endloop
endfacet
facet normal -0.13052619222005213 -0.9914448613738105 -0.0
  outer loop
    vertex 4.447085729384874 4.20444504226559 0.0
    vertex 5.999999999999999 3.999999999999999 5.0
    vertex 4.447085729384874 4.20444504226559 5.0
  endloop
endfacet
facet normal -0.3826834323650902 -0.9238795325112867 -0.0
  outer loop
    vertex 4.447085729384874 4.20444504226559 5.0
    vertex 2.9999999999999987 4.803847577293369 0.0
    vertex 4.447085729384874 4.20444504226559 0.0
  endloop
endfacet
facet normal -0.3826834323650902 -0.9238795325112867 -0.0
  outer loop
    vertex 2.9999999999999987 4.803847577293369 0.0
    vertex 4.447085729384874 4.20444504226559 5.0
    vertex 2.9999999999999987 4.803847577293369 5.0
  endloop
endfacet
facet normal -0.608761429008721 -0.7933533402912348 -0.0
  outer loop
    vertex 2.9999999999999987 4.803847577293369 5.0
    vertex 1.7573593128807143 5.757359312880715 0.0
    vertex 2.9999999999999987 4.803847577293369 0.0
  endloop
endfacet
facet normal -0.608761429008721 -0.7933533402912348 -0.0
  outer loop
    vertex 1.7573593128807143 5.757359312880715 0.0
    vertex 2.9999999999999987 4.803847577293369 5.0
    vertex 1.7573593128807143 5.757359312880715 5.0
  endloop
endfacet
facet normal -0.7933533402912352 -0.6087614290087205 -0.0
  outer loop
    vertex 0.8038475772933674 7.000000000000001 5.0
    vertex 1.7573593128807143 5.757359312880715 0.0
    vertex 1.7573593128807143 5.757359312880715 5.0
  endloop
endfacet
facet normal -0.7933533402912352 -0.6087614290087205 -0.0
  outer loop
    vertex 1.7573593128807143 5.757359312880715 0.0
    vertex 0.8038475772933674 7.000000000000001 5.0
    vertex 0.8038475772933674 7.000000000000001 0.0
  endloop
endfacet
facet normal -0.9238795325112867 -0.3826834323650902 -0.0
  outer loop
    vertex 0.2044450422655891 8.447085729384876 5.0
    vertex 0.8038475772933674 7.000000000000001 0.0
    vertex 0.8038475772933674 7.000000000000001 5.0
  endloop
endfacet
facet normal -0.9238795325112867 -0.3826834323650902 -0.0
  outer loop
    vertex 0.8038475772933674 7.000000000000001 0.0
    vertex 0.2044450422655891 8.447085729384876 5.0
    vertex 0.2044450422655891 8.447085729384876 0.0
  endloop
endfacet
facet normal -0.9914448613738105 -0.1305261922200508 -0.0
  outer loop
    vertex 0.0 10.000000000000002 5.0
    vertex 0.2044450422655891 8.447085729384876 0.0
    vertex 0.2044450422655891 8.447085729384876 5.0
  endloop
endfacet
facet normal -0.9914448613738105 -0.1305261922200508 -0.0
  outer loop
    vertex 0.2044450422655891 8.447085729384876 0.0
    vertex 0.0 10.000000000000002 5.0
    vertex 0.0 10.000000000000002 0.0
  endloop
endfacet
facet normal -0.9914448613738104 0.1305261922200522 0.0
  outer loop
    vertex 0.20444504226559193 11.552914270615132 5.0
    vertex 0.0 10.000000000000002 0.0
    vertex 0.0 10.000000000000002 5.0
  endloop
endfacet
facet normal -0.9914448613738104 0.1305261922200522 0.0
  outer loop
    vertex 0.0 10.000000000000002 0.0
    vertex 0.20444504226559193 11.552914270615132 5.0
    vertex 0.20444504226559193 11.552914270615132 0.0
  endloop
endfacet
facet normal -0.9238795325112863 0.38268343236509084 0.0
  outer loop
    vertex 0.8038475772933709 13.000000000000004 5.0
    vertex 0.20444504226559193 11.552914270615132 0.0
    vertex 0.20444504226559193 11.552914270615132 5.0
  endloop
endfacet
facet normal -0.9238795325112863 0.38268343236509084 0.0
  outer loop
    vertex 0.20444504226559193 11.552914270615132 0.0
    vertex 0.8038475772933709 13.000000000000004 5.0
    vertex 0.8038475772933709 13.000000000000004 0.0
  endloop
endfacet
facet normal -0.7933533402912353 0.6087614290087204 0.0
  outer loop
    vertex 1.7573593128807166 14.24264068711929 5.0
    vertex 0.8038475772933709 13.000000000000004 0.0
    vertex 0.8038475772933709 13.000000000000004 5.0
  endloop
endfacet
facet normal -0.7933533402912353 0.6087614290087204 0.0
  outer loop
    vertex 0.8038475772933709 13.000000000000004 0.0
    vertex 1.7573593128807166 14.24264068711929 5.0
    vertex 1.7573593128807166 14.24264068711929 0.0
  endloop
endfacet
facet normal -0.6087614290087199 0.7933533402912358 0.0
  outer loop
    vertex 1.7573593128807166 14.24264068711929 5.0
    vertex 3.0000000000000058 15.196152422706636 0.0
    vertex 1.7573593128807166 14.24264068711929 0.0
  endloop
endfacet
facet normal -0.6087614290087199 0.7933533402912358 0.0
  outer loop
    vertex 3.0000000000000058 15.196152422706636 0.0
    vertex 1.7573593128807166 14.24264068711929 5.0
    vertex 3.0000000000000058 15.196152422706636 5.0
  endloop
endfacet
facet normal -0.3826834323650882 0.9238795325112874 0.0
  outer loop
    vertex 3.0000000000000058 15.196152422706636 5.0
    vertex 4.447085729384881 15.795554957734412 0.0
    vertex 3.0000000000000058 15.196152422706636 0.0
  endloop
endfacet
facet normal -0.3826834323650882 0.9238795325112874 0.0
  outer loop
    vertex 4.447085729384881 15.795554957734412 0.0
    vertex 3.0000000000000058 15.196152422706636 5.0
    vertex 4.447085729384881 15.795554957734412 5.0
  endloop
endfacet
facet normal -0.13052619222005185 0.9914448613738104 0.0
  outer loop
    vertex 4.447085729384881 15.795554957734412 5.0
    vertex 6.0000000000000036 16.0 0.0
    vertex 4.447085729384881 15.795554957734412 0.0
  endloop
endfacet
facet normal -0.13052619222005185 0.9914448613738104 0.0
  outer loop
    vertex 6.0000000000000036 16.0 0.0
    vertex 4.447085729384881 15.795554957734412 5.0
    vertex 6.0000000000000036 16.0 5.0
  endloop
endfacet
endsolid battery_lock
